# xmcd
#
# Track frame offsets: 
#        150
#        17050
#        32817
#        53670
#        70606
#        88022
#        107956
#        122818
#        137762
#        159043
#        173942
#        195267
#        210580
#        232135
#
# Disc length: 3312 seconds
#
# Revision: 0
# Processed by: cddbd v1.5.2PL0 Copyright (c) Steve Scherf et al.
# Submitted via: ExactAudioCopy v1.0b4
#
DISCID=b70cee0e
DTITLE=Bella Italia - CD 4
DYEAR=2015
DGENRE=Pop
TTITLE0=Eros Ramazzotti - Terra Promessa
TTITLE1=Luca Dirisio - Calma e sangue freddo
TTITLE2=Jovanotti - Ciao Mamma
TTITLE3=Nevio - Amore Per Sempre
TTITLE4=Toto Cutugno - L'italiano
TTITLE5=Al Bano and Romina Power - Sjarazan
TTITLE6=Ricchi e Poveri - M'innamoro di te
TTITLE7=Alan Sorrenti - Non so che darei
TTITLE8=Patty Pravo - Pazza Idea
TTITLE9=Pupo - Su di noi
TTITLE10=Vasco Rossi - Vita Spericolata
TTITLE11=Eduardo de Crescento - Ancona
TTITLE12=Lucio Battisti - Emozioni
TTITLE13=Nino Buonocore - Scrivimi
EXTD=
EXTT0=
EXTT1=
EXTT2=
EXTT3=
EXTT4=
EXTT5=
EXTT6=
EXTT7=
EXTT8=
EXTT9=
EXTT10=
EXTT11=
EXTT12=
EXTT13=
PLAYORDER=
